<?xml version="1.0" encoding="UTF-8" standalone="no"?>
<!DOCTYPE svg PUBLIC "-//W3C//DTD SVG 1.1//EN" "http://www.w3.org/Graphics/SVG/1.1/DTD/svg11.dtd">
<svg width="68px" height="68px" version="1.1" xmlns="http://www.w3.org/2000/svg" xmlns:xlink="http://www.w3.org/1999/xlink" xml:space="preserve" style="fill-rule:evenodd;clip-rule:evenodd;stroke-linejoin:round;stroke-miterlimit:1.41421;">
    <path d="M36.975,0.135c0.511,0.045 1.017,0.099 1.521,0.167c3.51,11.66 1.894,24.615 -5.241,35.256l-1.023,-0.453c-2.444,-0.993 -4.882,-1.778 -7.358,-2.38c5.291,-9.872 5.944,-21.584 1.975,-31.966c3.246,-0.699 6.649,-0.929 10.126,-0.624Zm30.893,36.815c-0.208,2.394 -0.661,4.707 -1.329,6.92c-4.665,-5.614 -10.797,-10.131 -18.143,-12.805c-1.96,-0.723 -3.921,-1.267 -5.883,-1.688c4.085,-8.492 5.391,-17.91 4.131,-26.949c13.557,5.418 22.564,19.23 21.224,34.522Zm-36.818,30.919c-9.544,-0.834 -17.828,-5.544 -23.433,-12.443c10.119,-1.657 19.738,-6.594 27.117,-14.653c8.333,5.223 14.35,13.07 17.389,21.993c-6.063,3.828 -13.382,5.776 -21.073,5.103Zm-30.919,-36.845c1.103,-12.63 8.995,-23.037 19.762,-27.958c6.333,12.564 4.165,28.299 -6.479,38.586c-3.049,2.96 -6.521,5.182 -10.222,6.718c-2.454,-5.239 -3.601,-11.174 -3.061,-17.346Zm42.684,1.911c9.282,3.398 16.382,10.048 20.551,18.207c-1.468,2.51 -3.246,4.808 -5.276,6.845c-4.732,-8.406 -11.721,-15.577 -20.64,-20.41c1.297,-1.687 2.469,-3.435 3.496,-5.244l1.869,0.602Zm-12.029,5.97c-6.516,7.907 -15.326,12.779 -24.694,14.495c-0.624,-0.897 -1.207,-1.824 -1.744,-2.78c4.848,-1.789 9.425,-4.593 13.38,-8.43c2.052,-1.986 3.86,-4.188 5.366,-6.511c1.719,0.452 3.439,1.027 5.127,1.719l2.745,1.235l-0.18,0.272" style="fill:#2268b4;fill-rule:nonzero;"/>
</svg>
