<svg>
    <symbol id="ico-grid-new-item" viewBox="0 0 16.00 16.00">
        <path fill="#747474" fill-opacity="1" stroke-width="0.2" stroke-linejoin="round" d="M 8,2.5L 9,2.5L 9,6.2931L 11.6824,3.61071L 12.3895,4.31782L 9.70734,6.99999L 13.5,6.99999L 13.5,7.99999L 9.70708,7.99999L 12.389,10.682L 11.6819,11.3891L 9,8.70712L 9,12.5L 8,12.5L 8,8.70733L 5.31844,11.3889L 4.61133,10.6818L 7.29311,7.99999L 3.49995,7.99999L 3.49995,6.99999L 7.29286,6.99999L 4.61089,4.318L 5.31798,3.6109L 8,6.29293L 8,2.5 Z "/>
    </symbol>
    <symbol id="ico-grid-edit" viewBox="0 0 16 16">
		<path fill="none" d="M6 12l-2-2"/>
		<path fill="#747474" d="M13 5l-6.296 6.296-2-2L11 3l2 2zM3 13l.998-2.995 1.997 1.997L3 13z"/>
	</symbol>
</svg>
