<?xml version="1.0" standalone="no"?><!DOCTYPE svg PUBLIC "-//W3C//DTD SVG 1.1//EN" "http://www.w3.org/Graphics/SVG/1.1/DTD/svg11.dtd"><svg t="1526884601478" class="icon" style="" viewBox="0 0 1024 1024" version="1.1" xmlns="http://www.w3.org/2000/svg" p-id="4063" xmlns:xlink="http://www.w3.org/1999/xlink" width="200" height="200"><defs><style type="text/css"></style></defs><path d="M512 1024C229.68 1024 0 794.32 0 512S229.68 0 512 0s512 229.68 512 512-229.68 512-512 512z m0-992C247.328 32 32 247.328 32 512s215.328 480 480 480 480-215.328 480-480S776.672 32 512 32z" fill="#8a8a8a" p-id="4064"></path><path d="M315.664 357.008H212.32a10.336 10.336 0 0 0-10.336 10.336v41.328c0 5.712 4.624 10.336 10.336 10.336h103.344a10.336 10.336 0 0 0 10.336-10.336v-41.328a10.336 10.336 0 0 0-10.336-10.336z m165.344 0h-103.328a10.336 10.336 0 0 0-10.336 10.336v41.328c0 5.712 4.624 10.336 10.336 10.336h103.328a10.336 10.336 0 0 0 10.336-10.336v-41.328a10.352 10.352 0 0 0-10.336-10.336z m62 62h103.328a10.32 10.32 0 0 0 10.336-10.336v-41.328a10.336 10.336 0 0 0-10.336-10.336h-103.328a10.336 10.336 0 0 0-10.336 10.336v41.328c0 5.712 4.624 10.336 10.336 10.336z m268.656-62H708.32a10.336 10.336 0 0 0-10.336 10.336v41.328c0 5.712 4.624 10.336 10.336 10.336h103.344a10.336 10.336 0 0 0 10.336-10.336v-41.328a10.336 10.336 0 0 0-10.336-10.336z m-496 124H212.32a10.336 10.336 0 0 0-10.336 10.336v41.328c0 5.712 4.624 10.336 10.336 10.336h103.344a10.336 10.336 0 0 0 10.336-10.336v-41.328a10.336 10.336 0 0 0-10.336-10.336z m165.344 0h-103.328a10.336 10.336 0 0 0-10.336 10.336v41.328c0 5.712 4.624 10.336 10.336 10.336h103.328a10.336 10.336 0 0 0 10.336-10.336v-41.328a10.352 10.352 0 0 0-10.336-10.336z m62 62h103.328a10.32 10.32 0 0 0 10.336-10.336v-41.328a10.336 10.336 0 0 0-10.336-10.336h-103.328a10.336 10.336 0 0 0-10.336 10.336v41.328c0 5.712 4.624 10.336 10.336 10.336z m-227.344 62H212.32a10.336 10.336 0 0 0-10.336 10.336v41.328c0 5.712 4.624 10.336 10.336 10.336h103.344a10.336 10.336 0 0 0 10.336-10.336v-41.328a10.336 10.336 0 0 0-10.336-10.336z m496-124h-41.344a10.336 10.336 0 0 0-10.336 10.336v113.664H543.008a10.336 10.336 0 0 0-10.336 10.336v41.328c0 5.712 4.624 10.336 10.336 10.336H811.68a10.336 10.336 0 0 0 10.336-10.336V491.344a10.352 10.352 0 0 0-10.352-10.336z m-330.656 124h-103.328a10.336 10.336 0 0 0-10.336 10.336v41.328c0 5.712 4.624 10.336 10.336 10.336h103.328a10.336 10.336 0 0 0 10.336-10.336v-41.328a10.352 10.352 0 0 0-10.336-10.336z" fill="#8a8a8a" p-id="4065"></path></svg>