<?xml version="1.0" standalone="no"?><!DOCTYPE svg PUBLIC "-//W3C//DTD SVG 1.1//EN" "http://www.w3.org/Graphics/SVG/1.1/DTD/svg11.dtd"><svg t="1526967619125" class="icon" style="" viewBox="0 0 1024 1024" version="1.1" xmlns="http://www.w3.org/2000/svg" p-id="1959" xmlns:xlink="http://www.w3.org/1999/xlink" width="200" height="200"><defs><style type="text/css"></style></defs><path d="M505.627872 659.137105c87.715761 0 159.146627-71.149457 159.146627-158.915359V268.63118c0-87.651292-71.252811-158.916383-159.146627-158.916383-87.715761 0-159.146627 71.149457-159.146626 158.916383v231.590566c0 87.651292 71.252811 158.915359 159.146626 158.915359z" p-id="1960" fill="#0067b1"></path><path d="M760.26227 432.904571c-17.702174 0-31.829939 14.130835-31.829939 31.561833v33.076326c0 124.944664-99.752912 226.232534-222.804459 226.232534s-222.805482-101.287871-222.805482-226.232534v-33.076326c0-17.216103-14.250562-31.561833-31.828916-31.561833-17.701151 0-31.828916 14.130835-31.828916 31.561833v33.076326c0 149.71993 111.404276 273.019117 254.634398 289.095257v98.732676H314.65233v64.638159h381.951085v-64.638159H537.456788v-98.732676c143.230122-16.077164 254.634398-139.376351 254.634398-289.095257v-33.076326c0-17.217127-14.250562-31.561833-31.828916-31.561833z" p-id="1961" fill="#0067b1"></path></svg>