<?xml version="1.0" encoding="UTF-8"?>
<svg width="800px" height="800px" viewBox="0 0 800 800" version="1.1" xmlns="http://www.w3.org/2000/svg" xmlns:xlink="http://www.w3.org/1999/xlink">
    <!-- Generator: Sketch 50.2 (55047) - http://www.bohemiancoding.com/sketch -->
    <title>show</title>
    <desc>Created with Sketch.</desc>
    <defs></defs>
    <g id="show" stroke="none" stroke-width="1" fill="none" fill-rule="evenodd">
        <g id="Group" transform="translate(35.000000, 71.000000)" fill="#007EE6" fill-rule="nonzero">
            <path d="M696.06724,274.008941 C687.324214,274.207882 679.017086,277.723903 672.955509,283.791062 L364.928289,580.245351 L56.9010754,283.791062 C50.6605925,277.617189 42.0914863,274.134057 33.1419382,274.133555 C19.6539604,274.136967 7.51295289,282.005283 2.43753097,294.032396 C-2.63789095,306.059509 0.364365273,319.847086 10.0301873,328.90095 L341.492851,647.910174 C354.437456,660.363275 375.419122,660.363275 388.363726,647.910174 L719.826384,328.90095 C729.678844,319.782733 732.706078,305.779276 727.449936,293.635731 C722.193793,281.492187 709.732046,273.698589 696.06724,274.008941 Z" id="Shape"></path>
            <path d="M696.06724,0.00894050683 C687.324214,0.207881998 679.017086,3.72390295 672.955509,9.79106168 L364.928289,306.245351 L56.9010754,9.79106168 C50.6605925,3.61718866 42.0914863,0.134057173 33.1419382,0.13355508 C19.6539604,0.136966903 7.51295289,8.00528271 2.43753097,20.0323956 C-2.63789095,32.0595085 0.364365273,45.8470857 10.0301873,54.9009502 L341.492851,373.910174 C354.437456,386.363275 375.419122,386.363275 388.363726,373.910174 L719.826384,54.9009502 C729.678844,45.7827329 732.706078,31.7792757 727.449936,19.6357313 C722.193793,7.49218692 709.732046,-0.301410671 696.06724,0.00894050683 Z" id="Shape-Copy"></path>
        </g>
    </g>
</svg>