<?xml version="1.0" encoding="utf-8"?>
<!-- Generator: Adobe Illustrator 22.1.0, SVG Export Plug-In . SVG Version: 6.00 Build 0)  -->
<svg version="1.1" id="图层_1" xmlns="http://www.w3.org/2000/svg" xmlns:xlink="http://www.w3.org/1999/xlink" x="0px" y="0px"
	 viewBox="0 0 800 800" style="enable-background:new 0 0 800 800;" xml:space="preserve">
<style type="text/css">
	.st0{fill:#666666;}
</style>
<title>time</title>
<desc>Created with Sketch.</desc>
<g id="time">
	<path id="Shape" class="st0" d="M107.9,61C67.9,61,35,93.8,35,133.6v386.9c0,39.8,32.9,72.6,72.9,72.6h232.8
		c30,84.7,110.4,146,205.5,146C666.8,739,765,641.3,765,521.3c0-51.7-19-98.7-49.5-136.1V133.6c0-39.8-32.9-72.6-72.9-72.6H107.9z
		 M107.9,109.4h534.7c13.7,0,24.3,10.6,24.3,24.2v24.2H83.6v-24.2C83.6,119.9,94.2,109.4,107.9,109.4z M83.6,206.1h583.3v134
		c-28.4-18.8-61.6-30.7-97.2-34.6v-0.6H278v46.4h133.5c-17.7,13.9-33.8,29.8-46.4,48.4H278v48.4h63.1c-8.4,23-13.7,47.5-13.7,73.4
		c0,8,1.5,15.6,2.4,23.3h-222c-13.7,0-24.3-10.6-24.3-24.2V206.1z M180.8,304.8v46.4h48.6v-46.4H180.8z M546.3,352.1
		c94.3,0,170.1,75.5,170.1,169.3s-75.9,169.3-170.1,169.3s-170.1-75.5-170.1-169.3S452,352.1,546.3,352.1z M180.8,399.6v48.4h48.6
		v-48.4H180.8z M522,400.4v145.1h97.2v-48.4h-48.6v-96.7H522z"/>
</g>
</svg>
