<?xml version="1.0" standalone="no"?><!DOCTYPE svg PUBLIC "-//W3C//DTD SVG 1.1//EN" "http://www.w3.org/Graphics/SVG/1.1/DTD/svg11.dtd"><svg t="1526884390541" class="icon" style="" viewBox="0 0 1024 1024" version="1.1" xmlns="http://www.w3.org/2000/svg" p-id="1965" xmlns:xlink="http://www.w3.org/1999/xlink" width="200" height="200"><defs><style type="text/css"></style></defs><path d="M512 1024C230.4 1024 0 793.6 0 512S230.4 0 512 0s512 230.4 512 512-230.4 512-512 512z m0-989.866667C249.173333 34.133333 34.133333 249.173333 34.133333 512s215.04 477.866667 477.866667 477.866667 477.866667-215.04 477.866667-477.866667S774.826667 34.133333 512 34.133333z" p-id="1966" fill="#8a8a8a"></path><path d="M512 651.946667c-76.8 0-139.946667-59.733333-139.946667-134.826667V343.04c0-75.093333 63.146667-134.826667 139.946667-134.826667s139.946667 59.733333 139.946667 134.826667v174.08c0 75.093333-63.146667 134.826667-139.946667 134.826667z m0-409.6c-58.026667 0-105.813333 44.373333-105.813333 100.693333v174.08c0 56.32 47.786667 100.693333 105.813333 100.693333s105.813333-44.373333 105.813333-100.693333V343.04c0-56.32-47.786667-100.693333-105.813333-100.693333zM494.933333 740.693333h34.133334v116.053334h-34.133334z" p-id="1967" fill="#8a8a8a"></path><path d="M512 774.826667c-133.12 0-242.346667-98.986667-242.346667-220.16V512h34.133334v42.666667c0 102.4 93.866667 186.026667 208.213333 186.026666 114.346667 0 208.213333-83.626667 208.213333-186.026666V512h34.133334v42.666667c0 121.173333-109.226667 220.16-242.346667 220.16z" p-id="1968" fill="#8a8a8a"></path></svg>