<?xml version="1.0" encoding="UTF-8"?>
<svg width="800px" height="800px" viewBox="0 0 800 800" version="1.1" xmlns="http://www.w3.org/2000/svg" xmlns:xlink="http://www.w3.org/1999/xlink">
    <!-- Generator: Sketch 50.2 (55047) - http://www.bohemiancoding.com/sketch -->
    <title>web-help</title>
    <desc>Created with Sketch.</desc>
    <defs></defs>
    <g id="web-help" stroke="none" stroke-width="1" fill="none" fill-rule="evenodd">
        <g id="Group-5" transform="translate(35.000000, 35.000000)">
            <circle id="Combined-Shape" stroke="#007EE6" stroke-width="32" fill="#FFFFFF" cx="365" cy="365" r="349"></circle>
            <path d="M359.037528,146 C396.853569,146 427.579102,156.228022 451.214128,177.887363 C474.849154,198.945055 486.666667,227.824176 486.666667,263.923077 C486.666667,293.403846 478.985283,318.071429 464.213392,337.324176 C458.895511,343.942308 442.350993,359.585165 414.579838,384.252747 C403.353201,393.879121 395.080942,404.708791 389.763061,415.538462 C383.263429,427.571429 380.309051,440.807692 380.309051,455.247253 L380.309051,465.475275 L317.085357,465.475275 L317.085357,455.247253 C317.085357,432.986264 320.630611,413.733516 328.90287,398.090659 C336.584253,381.244505 359.037528,356.576923 395.671818,323.486264 L405.716703,312.054945 C416.352465,298.217033 422.261221,283.777473 422.261221,268.134615 C422.261221,247.076923 416.352465,230.832418 405.125828,218.799451 C393.308315,206.766484 376.172921,200.75 354.901398,200.75 C328.311994,200.75 308.813098,209.173077 296.995585,226.620879 C286.359823,241.06044 281.041943,261.516484 281.041943,287.989011 L219,287.989011 C219,244.068681 231.408389,209.774725 256.225166,184.505495 C281.041943,158.634615 315.31273,146 359.037528,146 Z M348.401766,497.964286 C360.810155,497.964286 371.445916,501.574176 379.718175,509.997253 C387.990434,517.818681 392.126564,528.046703 392.126564,540.681319 C392.126564,553.315934 387.399558,563.543956 379.127299,571.967033 C370.85504,579.788462 360.219279,584 348.401766,584 C336.584253,584 325.948492,579.788462 317.676233,571.365385 C309.403974,562.942308 305.267844,552.714286 305.267844,540.681319 C305.267844,528.046703 309.403974,517.818681 317.676233,509.997253 C325.948492,501.574176 336.584253,497.964286 348.401766,497.964286 Z" id="？" fill="#3A8BFB"></path>
        </g>
    </g>
</svg>