<?xml version="1.0" encoding="UTF-8" standalone="no"?>
<!DOCTYPE svg PUBLIC "-//W3C//DTD SVG 1.1//EN" "http://www.w3.org/Graphics/SVG/1.1/DTD/svg11.dtd">
<svg width="30px" height="30px" version="1.1" xmlns="http://www.w3.org/2000/svg" xmlns:xlink="http://www.w3.org/1999/xlink" xml:space="preserve" style="fill-rule:evenodd;clip-rule:evenodd;stroke-linejoin:round;stroke-miterlimit:1.41421;">
    <path d="M15,0c8.279,0 15,6.721 15,15c0,8.279 -6.721,15 -15,15c-8.279,0 -15,-6.721 -15,-15c0,-8.279 6.721,-15 15,-15Zm3.577,4.596c-1.122,-0.386 -2.325,-0.596 -3.577,-0.596c-1.252,0 -2.455,0.21 -3.577,0.596l3.072,9.899l-9.899,-3.072c-0.386,1.122 -0.596,2.325 -0.596,3.577c0,1.252 0.21,2.455 0.596,3.577l9.899,-3.072l-3.072,9.899c1.122,0.386 2.325,0.596 3.577,0.596c1.252,0 2.455,-0.21 3.577,-0.596l-3.072,-9.899l9.899,3.072c0.386,-1.122 0.596,-2.325 0.596,-3.577c0,-1.252 -0.21,-2.455 -0.596,-3.577l-9.899,3.072l3.072,-9.899Z" style="fill:#fff;"/>
    <path d="M9.284,24.398c-1.501,-0.916 -2.766,-2.181 -3.682,-3.682l8.898,-5.216l-5.216,8.898Zm15.114,-3.682c-0.916,1.501 -2.181,2.766 -3.682,3.682l-5.216,-8.898l8.898,5.216Zm-9.898,-6.216l-8.898,-5.216c0.916,-1.501 2.181,-2.766 3.682,-3.682l5.216,8.898Zm6.216,-8.898c1.501,0.916 2.766,2.181 3.682,3.682l-8.898,5.216l5.216,-8.898Z"/>
    <path d="M15,1c7.727,0 14,6.273 14,14c0,7.727 -6.273,14 -14,14c-7.727,0 -14,-6.273 -14,-14c0,-7.727 6.273,-14 14,-14Zm0,2c6.623,0 12,5.377 12,12c0,6.623 -5.377,12 -12,12c-6.623,0 -12,-5.377 -12,-12c0,-6.623 5.377,-12 12,-12Z" class="marker-color"/>
</svg>
