<?xml version="1.0" encoding="UTF-8" standalone="no"?><!DOCTYPE svg PUBLIC "-//W3C//DTD SVG 1.1//EN" "http://www.w3.org/Graphics/SVG/1.1/DTD/svg11.dtd">
<svg viewBox="0 0 223 68" xmlns="http://www.w3.org/2000/svg" xmlns:xlink="http://www.w3.org/1999/xlink">
    <style>:root>svg{display:none}:root>svg:target{display:block}</style>
    <svg fill-rule="evenodd" clip-rule="evenodd" stroke-linejoin="round" stroke-miterlimit="1.414" viewBox="0 0 170 68"
         id="ico-rib-logo-text" xmlns="http://www.w3.org/2000/svg">
        <path d="M96.792 31.115c1.638 0 3.021-.07 4.159-.218 1.14-.149 2.096-.366 2.877-.659 1.443-.544 2.439-1.284 2.991-2.235.555-.943.833-2.026.833-3.25 0-1.054-.215-1.981-.659-2.791-.435-.805-1.181-1.442-2.226-1.911-.689-.314-1.543-.541-2.57-.684-1.039-.148-2.31-.222-3.829-.222h-5.106v11.97h3.53zm18.212-6.219c0 2.73-.752 5.037-2.267 6.936-1.508 1.9-3.838 3.304-6.995 4.217v.117l11.638 16.098h-8.587L98.165 37.101h-4.903v15.163H86.09v-39.1h11.886c1.966 0 3.8.111 5.493.339 1.693.221 3.143.556 4.354 1.004 2.296.878 4.067 2.173 5.316 3.897 1.247 1.725 1.865 3.888 1.865 6.492zm8.517 27.368v-39.1h7.173v39.1h-7.173zm22.998-16.992v11.013h4.679l3.217-.101c.898-.071 1.663-.183 2.309-.338.993-.216 1.826-.507 2.488-.862.664-.361 1.199-.769 1.608-1.227.41-.458.704-.967.878-1.517.17-.556.264-1.146.264-1.769 0-1.09-.307-2.047-.911-2.862-.602-.816-1.546-1.432-2.833-1.84a10.575 10.575 0 0 0-1.987-.38c-.76-.075-1.735-.117-2.929-.117h-6.783zm6.459-5.981c1.951 0 3.402-.198 4.355-.585 1.072-.453 1.837-1.075 2.297-1.865.457-.788.685-1.683.685-2.679 0-1.036-.263-1.959-.786-2.772-.53-.811-1.425-1.412-2.686-1.803a10.379 10.379 0 0 0-1.846-.338l-2.599-.103h-5.879v10.145h6.459zm14.694-5.714c0 1.698-.382 3.257-1.142 4.668-.76 1.412-2.017 2.591-3.767 3.527v.116a12.44 12.44 0 0 1 2.675 1.27 8.75 8.75 0 0 1 2.078 1.838 8.465 8.465 0 0 1 1.357 2.412c.324.894.488 1.896.488 3.006 0 .952-.153 1.976-.455 3.064-.3 1.092-.832 2.145-1.595 3.172-.757 1.019-1.774 1.959-3.038 2.816-1.268.854-2.869 1.537-4.798 2.041l-1.596.322-1.912.247-2.343.149-2.897.039h-11.379v-39.1h13.589c2.905 0 5.242.291 7.017.875 1.328.432 2.475.994 3.451 1.683.972.695 1.777 1.461 2.409 2.311a9.25 9.25 0 0 1 1.404 2.694c.3.943.454 1.899.454 2.85zM86.047 65.288v-7.02h.971v1.107c.36-.857.978-1.284 1.842-1.284l.262.019-.003.992-.418-.04c-.521 0-.929.173-1.217.514-.287.351-.43.811-.43 1.38v4.332h-1.007zm4.218-7.02h1.005v5.455c0 .288.067.512.199.667.13.15.374.228.718.228.38 0 .716-.144 1.005-.431.293-.29.441-.787.441-1.483v-4.436h1.004v7.02h-1.004v-1.006c-.33.791-.918 1.186-1.764 1.186-1.072 0-1.604-.608-1.604-1.826v-5.374zm6.343 7.02v-7.02h.973v.818c.452-.664 1.048-.995 1.79-.995.548 0 .97.148 1.261.451.295.303.447.757.447 1.377v5.369h-1.01v-5.079c0-.845-.337-1.269-1.02-1.269-.412 0-.762.144-1.029.427-.27.282-.403.645-.403 1.087v4.834h-1.009zm6.395 0v-7.02h.973v.818c.451-.664 1.045-.995 1.79-.995.545 0 .966.148 1.258.451.299.303.449.757.449 1.377v5.369h-1.01v-5.079c0-.845-.337-1.269-1.024-1.269-.413 0-.757.144-1.028.427-.269.282-.401.645-.401 1.087v4.834h-1.007zm6.38-7.021h1.008v7.021h-1.008v-7.021zm0-2.452h1.008v1.27h-1.008v-1.27zm2.891 9.473v-7.021h.971v.819c.449-.664 1.046-.995 1.788-.995.55 0 .972.148 1.266.451.292.303.446.757.446 1.377v5.369h-1.012v-5.081c0-.843-.337-1.267-1.023-1.267-.414 0-.757.144-1.029.427-.267.282-.397.645-.397 1.087v4.834h-1.01zm7.21-3.533c0 1.907.433 2.863 1.298 2.863.996 0 1.489-.895 1.489-2.684 0-1.068-.109-1.836-.34-2.298-.218-.465-.579-.696-1.062-.696-.925 0-1.385.939-1.385 2.815zm-.732 4.239h.947c.089.552.473.828 1.149.828.449 0 .794-.162 1.033-.478.24-.315.355-.806.355-1.465v-.477c-.386.713-.894 1.065-1.525 1.065-1.507 0-2.262-1.238-2.262-3.719 0-1.114.189-2.003.561-2.664.376-.662.926-.993 1.65-.993.749 0 1.289.339 1.611 1.015v-.839h.972v6.249c0 2.101-.82 3.156-2.459 3.156-.62 0-1.098-.147-1.439-.444-.335-.301-.536-.712-.593-1.234zm8.737-6.873v-.854h.971v-1.876h1.004v1.876h1.188v.854h-1.188v4.776l.077.431c.06.074.206.108.439.108h.649v.852h-1.121c-.41 0-.69-.083-.833-.246-.142-.169-.215-.463-.215-.883v-5.038h-.971zm5.135 2.727c0 .957.117 1.663.346 2.106.235.444.612.664 1.119.664.536 0 .914-.233 1.129-.696.221-.462.33-1.155.33-2.074 0-1.035-.117-1.779-.343-2.232-.223-.451-.599-.676-1.122-.676-.498 0-.865.221-1.105.664-.237.443-.354 1.192-.354 2.244zm-1.03-.327c0-1.112.211-1.966.63-2.548.423-.589 1.054-.883 1.884-.883.802 0 1.412.296 1.832.897.427.588.637 1.426.637 2.501 0 1.331-.189 2.323-.578 2.986-.376.664-.999.993-1.873.993-.897 0-1.546-.303-1.937-.914-.398-.609-.595-1.625-.595-3.032zm7.487.234c0 1.907.433 2.862 1.297 2.862.994 0 1.489-.894 1.489-2.683 0-1.068-.111-1.836-.34-2.299-.22-.464-.579-.695-1.064-.695-.923 0-1.382.939-1.382 2.815zm-.736 4.239h.951c.092.552.473.828 1.148.828.446 0 .79-.162 1.032-.478.236-.315.356-.806.356-1.465v-.478c-.387.713-.898 1.066-1.524 1.066-1.51 0-2.259-1.238-2.259-3.719 0-1.116.182-2.004.555-2.666.373-.661.928-.992 1.652-.992.749 0 1.29.34 1.611 1.016v-.839h.973v6.249c0 2.101-.82 3.156-2.459 3.156-.617 0-1.097-.147-1.442-.444-.335-.301-.536-.712-.594-1.234zm9.388-4.97c0-.841-.109-1.398-.322-1.671-.211-.273-.48-.413-.815-.413-.466 0-.796.164-.983.485-.194.324-.295.855-.308 1.599h2.428zm-2.428.826v.524c0 .874.117 1.466.352 1.774.236.314.55.469.939.469.372 0 .661-.121.867-.365.207-.249.314-.574.332-.983l.008-.341h.915v.243c0 .648-.187 1.192-.557 1.635-.366.441-.901.661-1.593.661-1.526 0-2.294-1.23-2.294-3.688 0-1.139.193-2.038.587-2.697.395-.661.955-.992 1.694-.992.794 0 1.363.258 1.697.772.342.515.516 1.511.516 2.988h-3.463zm4.233-2.729v-.854h.968v-1.876h1.011v1.876h1.181v.854h-1.181v4.775l.076.432c.06.073.204.108.435.108h.647v.851h-1.118c-.411 0-.685-.082-.833-.245-.146-.169-.218-.463-.218-.883v-5.038h-.968zm4.382-3.33h1.004v3.294c.454-.664 1.035-.995 1.759-.995.579 0 1.004.154 1.281.454.286.309.423.765.423 1.374v5.369h-1.003v-5.08c0-.844-.343-1.267-1.026-1.267-.467 0-.824.15-1.071.444a1.655 1.655 0 0 0-.363 1.07v4.833h-1.004v-9.496zm9.474 5.233c0-.842-.109-1.4-.321-1.672a.997.997 0 0 0-.822-.412c-.468 0-.797.164-.987.485-.189.324-.29.855-.311 1.599h2.441zm-2.433.826v.524c0 .874.117 1.465.35 1.774.238.314.55.469.934.469s.672-.122.877-.365c.204-.25.316-.574.327-.983l.016-.341h.909v.241c0 .65-.186 1.194-.557 1.637-.363.441-.898.661-1.598.661-1.525 0-2.289-1.23-2.289-3.688 0-1.139.195-2.039.587-2.697.389-.661.955-.992 1.691-.992.797 0 1.365.258 1.703.772.339.515.51 1.511.51 2.988h-3.46zm5.144 3.437v-7.02h.97v1.106c.361-.857.973-1.283 1.845-1.283l.264.019-.003.992-.422-.039c-.519 0-.929.172-1.222.513-.286.351-.43.81-.43 1.38v4.332h-1.002zM36.977.131l1.521.168c3.51 11.66 1.894 24.616-5.242 35.258l-1.022-.453a52.16 52.16 0 0 0-7.359-2.381C30.167 22.851 30.819 11.14 26.85.756A34.014 34.014 0 0 1 36.977.131zM67.871 36.95a34.142 34.142 0 0 1-1.329 6.919c-4.665-5.615-10.797-10.132-18.144-12.804a42.988 42.988 0 0 0-5.883-1.689c4.085-8.492 5.392-17.912 4.131-26.95C60.204 7.843 69.212 21.655 67.871 36.95zm-36.82 30.919c-9.544-.835-17.828-5.544-23.434-12.443 10.12-1.657 19.739-6.594 27.119-14.655 8.333 5.224 14.349 13.071 17.389 21.995a33.813 33.813 0 0 1-21.074 5.103zM.131 31.022C1.234 18.392 9.126 7.985 19.894 3.064c6.333 12.565 4.166 28.299-6.479 38.587A32.536 32.536 0 0 1 3.192 48.37 33.827 33.827 0 0 1 .131 31.022zm42.686 1.911c9.283 3.399 16.382 10.05 20.552 18.208a34.097 34.097 0 0 1-5.276 6.846c-4.733-8.406-11.722-15.577-20.642-20.41a45.239 45.239 0 0 0 3.497-5.245l1.869.601zm-12.03 5.971C24.271 46.811 15.461 51.684 6.093 53.4a33.989 33.989 0 0 1-1.744-2.78 38.164 38.164 0 0 0 13.38-8.431 37.477 37.477 0 0 0 5.366-6.51 40.936 40.936 0 0 1 5.127 1.719l2.746 1.233-.181.273"
              fill="#fff" fill-rule="nonzero"/>
    </svg>
    <svg fill-rule="evenodd" clip-rule="evenodd" stroke-linejoin="round" stroke-miterlimit="1.414" viewBox="0 0 87 17"
         id="ico-itwo40-logo-wh" xmlns="http://www.w3.org/2000/svg">
        <g fill="#fff" fill-rule="nonzero">
            <path d="M0 3h3V0H0v3zM36.225.024l-3.082 13.571h-.05L30.199.024h-4.472l-2.804 13.571h-.046L19.817.024 4 0v3h5v14h3V3h5.1l3.609 14h4.263l2.919-13.572h.048L30.904 17h4.239L39.427.024h-3.202zM0 17h3V5H0v12M46.833 0a8.497 8.497 0 0 0-5.318 2.103h2.164v2.113a5.496 5.496 0 0 1 8.94 4.281 5.496 5.496 0 0 1-5.499 5.495 5.496 5.496 0 0 1-5.5-5.495c0-1.237.417-2.376 1.109-3.294V3.055h-2.146a8.468 8.468 0 0 0-1.974 5.442c0 4.698 3.812 8.503 8.511 8.503 4.701 0 8.509-3.805 8.509-8.503 0-4.602-3.661-8.353-8.234-8.497h-.562M65 11V5l-4 6h4zm0 6v-3h-7v-3l7.244-11H68v11h2v3h-2v3h-3M72 17h3v-3h-3v3M81.5 2.647a1.64 1.64 0 0 0-1.049.369c-.308.247-.548.685-.718 1.32-.224.825-.334 2.215-.334 4.168 0 1.952.097 3.292.301 4.023.199.732.449 1.217.755 1.46.304.242.653.362 1.045.362.392 0 .744-.122 1.052-.369.308-.245.545-.688.715-1.323.224-.814.334-2.201.334-4.153 0-1.953-.097-3.293-.297-4.024-.203-.732-.453-1.217-.759-1.464a1.621 1.621 0 0 0-1.045-.369zM81.5 0c1.641 0 2.924.575 3.848 1.725C86.448 3.089 87 5.348 87 8.504c0 3.148-.555 5.411-1.665 6.787-.914 1.137-2.194 1.702-3.835 1.702-1.648 0-2.975-.621-3.984-1.865C76.504 13.881 76 11.663 76 8.471c0-3.134.555-5.388 1.665-6.768C78.583.569 79.859 0 81.5 0"/>
        </g>
    </svg>
</svg>